<svg width="98" height="38" viewBox="0 0 98 38" fill="none" xmlns="http://www.w3.org/2000/svg">
<path fill-rule="evenodd" clip-rule="evenodd" d="M20.5097 20.9175L20.785 20.4381L21.4826 21.4808L21.2072 21.9602L20.5097 20.9175Z" fill="white"/>
<path fill-rule="evenodd" clip-rule="evenodd" d="M20.785 20.4381L17.3853 20.4629L17.11 20.9423L14.5482 20.961L15.2458 22.0038L17.8075 21.9851L18.0828 21.5057L21.4825 21.4808L20.785 20.4381Z" fill="white"/>
<path fill-rule="evenodd" clip-rule="evenodd" d="M14.5482 20.9611L18.2352 14.5612L24.6156 14.5146C25.0386 14.5115 25.3937 14.5248 25.681 14.5545C25.9763 14.5762 26.1838 14.6503 26.3035 14.7767C26.3179 14.7919 26.3309 14.8081 26.3426 14.8254L27.0402 15.8681C27.0285 15.8508 27.0154 15.8346 27.0011 15.8195C26.8814 15.693 26.6739 15.619 26.3786 15.5973C26.0913 15.5675 25.7362 15.5542 25.3132 15.5573L18.9328 15.6039L15.2458 22.0038L14.5482 20.9611Z" fill="white"/>
<path fill-rule="evenodd" clip-rule="evenodd" d="M26.3426 14.8253C26.4286 14.9519 26.4435 15.1344 26.3873 15.3728C26.3314 15.6358 26.1639 16.007 25.8845 16.4864L25.3099 17.4811C25.1663 17.7288 25.0186 17.9566 24.867 18.1646C24.7234 18.3725 24.5598 18.5567 24.3762 18.7172C24.2006 18.8696 24.0011 18.9984 23.7777 19.1034C23.5622 19.2005 23.3068 19.262 23.0116 19.2881L23.7091 20.3308C24.0044 20.3048 24.2598 20.2432 24.4752 20.1462C24.6987 20.0411 24.8982 19.9124 25.0738 19.7599C25.2573 19.5994 25.4209 19.4153 25.5646 19.2074C25.7162 18.9994 25.8639 18.7716 26.0075 18.5239L26.5821 17.5291C26.8614 17.0497 27.029 16.6785 27.0849 16.4156C27.1411 16.1771 27.1262 15.9946 27.0402 15.8681L26.3426 14.8253Z" fill="white"/>
<path fill-rule="evenodd" clip-rule="evenodd" d="M23.0116 19.2881C23.4004 19.3253 23.6456 19.417 23.7472 19.563L24.4448 20.6057C24.3431 20.4597 24.0979 20.3681 23.7091 20.3308L23.0116 19.2881Z" fill="white"/>
<path fill-rule="evenodd" clip-rule="evenodd" d="M23.7472 19.563C23.7666 19.5908 23.7807 19.6206 23.7897 19.6523C23.8535 19.8428 23.7697 20.1418 23.5383 20.5492L24.2358 21.592C24.4673 21.1845 24.5511 20.8855 24.4872 20.6951C24.4783 20.6633 24.4641 20.6335 24.4448 20.6057L23.7472 19.563Z" fill="white"/>
<path fill-rule="evenodd" clip-rule="evenodd" d="M23.5383 20.5492L26.3993 20.5283L27.0968 21.5711L24.2358 21.592L23.5383 20.5492Z" fill="white"/>
<path fill-rule="evenodd" clip-rule="evenodd" d="M26.3993 20.5283L26.1958 20.8759L20.5097 20.9175L21.2072 21.9602L26.8933 21.9186L27.0969 21.5711L26.3993 20.5283Z" fill="white"/>
<path fill-rule="evenodd" clip-rule="evenodd" d="M20.1266 21.5886L20.3421 21.217L26.0162 21.1756L26.7138 22.2183L21.0396 22.2598L20.8242 22.6313L20.1266 21.5886Z" fill="white"/>
<path fill-rule="evenodd" clip-rule="evenodd" d="M26.0162 21.1756L25.8007 21.5471L20.1266 21.5886L20.8242 22.6313L26.4983 22.5898L26.7138 22.2183L26.0162 21.1756Z" fill="white"/>
<path fill-rule="evenodd" clip-rule="evenodd" d="M19.7316 22.2598L19.947 21.8882L25.6332 21.8467L26.3307 22.8894L20.6446 22.931L20.4291 23.3025L19.7316 22.2598Z" fill="white"/>
<path fill-rule="evenodd" clip-rule="evenodd" d="M25.6332 21.8467L25.4177 22.2182L19.7316 22.2598L20.4291 23.3025L26.1152 23.261L26.3307 22.8894L25.6332 21.8467Z" fill="white"/>
<path fill-rule="evenodd" clip-rule="evenodd" d="M19.3724 22.9069L19.564 22.5713L25.2381 22.5298L25.9357 23.5726L20.2615 23.614L20.07 23.9496L19.3724 22.9069Z" fill="white"/>
<path fill-rule="evenodd" clip-rule="evenodd" d="M25.2381 22.5298L25.0466 22.8654L19.3724 22.9069L20.07 23.9496L25.7442 23.9081L25.9357 23.5726L25.2381 22.5298Z" fill="white"/>
<path fill-rule="evenodd" clip-rule="evenodd" d="M14.1532 21.6322L14.3686 21.2607L16.9304 21.242L17.628 22.2847L15.0662 22.3034L14.8507 22.675L14.1532 21.6322Z" fill="white"/>
<path fill-rule="evenodd" clip-rule="evenodd" d="M16.9304 21.242L16.7149 21.6135L14.1532 21.6322L14.8507 22.675L17.4125 22.6562L17.628 22.2847L16.9304 21.242Z" fill="white"/>
<path fill-rule="evenodd" clip-rule="evenodd" d="M13.7701 22.3034L13.9856 21.9318L16.5473 21.9131L17.2449 22.9559L14.6832 22.9746L14.4677 23.3461L13.7701 22.3034Z" fill="white"/>
<path fill-rule="evenodd" clip-rule="evenodd" d="M16.5473 21.9131L16.3319 22.2847L13.7701 22.3034L14.4677 23.3461L17.0294 23.3274L17.2449 22.9559L16.5473 21.9131Z" fill="white"/>
<path fill-rule="evenodd" clip-rule="evenodd" d="M13.399 22.9505L13.5905 22.6149L16.1523 22.5962L16.8499 23.639L14.2881 23.6577L14.0966 23.9933L13.399 22.9505Z" fill="white"/>
<path fill-rule="evenodd" clip-rule="evenodd" d="M16.1523 22.5962L15.9608 22.9318L13.399 22.9505L14.0966 23.9933L16.6583 23.9745L16.8499 23.639L16.1523 22.5962Z" fill="white"/>
<path fill-rule="evenodd" clip-rule="evenodd" d="M18.6422 18.2817L22.0659 18.2567L22.8799 16.8425L23.5774 17.8852L22.7634 19.2994L19.3398 19.3245L18.6422 18.2817Z" fill="white"/>
<path fill-rule="evenodd" clip-rule="evenodd" d="M22.8799 16.8425L19.4562 16.8675L18.6422 18.2817L19.3398 19.3245L20.1538 17.9103L23.5774 17.8852L22.8799 16.8425Z" fill="white"/>
<path fill-rule="evenodd" clip-rule="evenodd" d="M28.4831 19.9283L29.2851 18.5381L29.9827 19.5808L29.1807 20.9711L28.4831 19.9283Z" fill="white"/>
<path fill-rule="evenodd" clip-rule="evenodd" d="M29.2851 18.5381L27.4776 18.5513L26.6755 19.9415L24.5327 19.9572L25.2303 20.9999L27.3731 20.9843L28.1751 19.594L29.9827 19.5808L29.2851 18.5381Z" fill="white"/>
<path fill-rule="evenodd" clip-rule="evenodd" d="M24.5327 19.9572L26.8551 15.9064C27.0546 15.5629 27.2541 15.2988 27.4536 15.1144C27.6611 14.9219 27.8726 14.7812 28.0881 14.6921C28.3115 14.595 28.543 14.5376 28.7824 14.5199C29.0298 14.4942 29.2891 14.4804 29.5605 14.4784L31.8828 14.4614C32.1621 14.4594 32.4095 14.4695 32.625 14.4918C32.8484 14.5061 33.016 14.5606 33.1278 14.6552C33.1546 14.6779 33.1777 14.7034 33.1972 14.7317L33.8947 15.7744C33.8753 15.7462 33.8521 15.7207 33.8253 15.698C33.7136 15.6033 33.546 15.5488 33.3225 15.5346C33.1071 15.5123 32.8597 15.5021 32.5804 15.5042L30.258 15.5212C29.9867 15.5231 29.7273 15.537 29.4799 15.5626C29.2405 15.5803 29.0091 15.6377 28.7856 15.7348C28.5702 15.8239 28.3587 15.9647 28.1512 16.1571C27.9517 16.3416 27.7522 16.6056 27.5526 16.9492L25.2303 20.9999L24.5327 19.9572Z" fill="white"/>
<path fill-rule="evenodd" clip-rule="evenodd" d="M33.1972 14.7317C33.2588 14.8212 33.2835 14.9386 33.2714 15.0838C33.2554 15.2669 33.1517 15.5262 32.9602 15.8618L30.6259 19.9126L28.4831 19.9283L29.1807 20.971L31.3234 20.9554L33.6577 16.9045C33.8493 16.569 33.953 16.3096 33.969 16.1265C33.9811 15.9813 33.9563 15.864 33.8947 15.7744L33.1972 14.7317Z" fill="white"/>
<path fill-rule="evenodd" clip-rule="evenodd" d="M23.5152 20.8955L23.7187 20.5479L30.7575 20.4965L31.4551 21.5392L24.4163 21.5906L24.2128 21.9382L23.5152 20.8955Z" fill="white"/>
<path fill-rule="evenodd" clip-rule="evenodd" d="M30.7575 20.4965L30.554 20.844L23.5152 20.8955L24.2128 21.9382L31.2516 21.8868L31.4551 21.5392L30.7575 20.4965Z" fill="white"/>
<path fill-rule="evenodd" clip-rule="evenodd" d="M23.1322 21.5666L23.3476 21.1951L30.3745 21.1437L31.072 22.1864L24.0452 22.2378L23.8297 22.6093L23.1322 21.5666Z" fill="white"/>
<path fill-rule="evenodd" clip-rule="evenodd" d="M30.3745 21.1437L30.159 21.5152L23.1322 21.5666L23.8297 22.6093L30.8566 22.558L31.072 22.1864L30.3745 21.1437Z" fill="white"/>
<path fill-rule="evenodd" clip-rule="evenodd" d="M22.7372 22.2378L22.9526 21.8663L29.9914 21.8148L30.689 22.8576L23.6502 22.909L23.4347 23.2806L22.7372 22.2378Z" fill="white"/>
<path fill-rule="evenodd" clip-rule="evenodd" d="M29.9914 21.8148L29.7759 22.1864L22.7372 22.2378L23.4347 23.2806L30.4735 23.2291L30.689 22.8576L29.9914 21.8148Z" fill="white"/>
<path fill-rule="evenodd" clip-rule="evenodd" d="M22.3661 22.885L22.5696 22.5493L29.5964 22.498L30.2939 23.5407L23.2671 23.5921L23.0636 23.9277L22.3661 22.885Z" fill="white"/>
<path fill-rule="evenodd" clip-rule="evenodd" d="M29.5964 22.498L29.4048 22.8335L22.3661 22.885L23.0636 23.9277L30.1024 23.8763L30.2939 23.5407L29.5964 22.498Z" fill="white"/>
<path fill-rule="evenodd" clip-rule="evenodd" d="M28.3634 16.9934L30.1829 16.9801L30.578 16.2969L31.2755 17.3397L30.8805 18.0228L29.061 18.0361L28.3634 16.9934Z" fill="white"/>
<path fill-rule="evenodd" clip-rule="evenodd" d="M30.578 16.2969L28.7584 16.3102L28.3634 16.9934L29.061 18.0361L29.456 17.353L31.2755 17.3397L30.578 16.2969Z" fill="white"/>
<path fill-rule="evenodd" clip-rule="evenodd" d="M31.3131 19.9076L34.4494 14.4546L38.5554 14.4246C38.8347 14.4226 39.0821 14.4327 39.2976 14.455C39.521 14.4693 39.6886 14.5198 39.8004 14.6065C39.8363 14.6324 39.8661 14.6631 39.8898 14.6985L40.5873 15.7413C40.5636 15.7059 40.5338 15.6752 40.4979 15.6492C40.3862 15.5625 40.2186 15.512 39.9951 15.4977C39.7797 15.4754 39.5323 15.4653 39.253 15.4673L35.147 15.4974L32.0106 20.9504L31.3131 19.9076Z" fill="white"/>
<path fill-rule="evenodd" clip-rule="evenodd" d="M39.8898 14.6985C39.9451 14.7811 39.9671 14.8893 39.956 15.023C39.94 15.2061 39.8323 15.4695 39.6328 15.813L38.8307 17.2033C38.6312 17.5468 38.4317 17.8148 38.2322 18.0072C38.0327 18.1917 37.8212 18.3325 37.5977 18.4296C37.3823 18.5187 37.1508 18.5761 36.9034 18.6017C36.664 18.6194 36.4046 18.6292 36.1253 18.6313L34.1741 18.6455L33.4558 19.892L31.3131 19.9076L32.0106 20.9504L34.1534 20.9347L34.8717 19.6883L36.8229 19.674C37.1022 19.672 37.3616 19.6621 37.601 19.6445C37.8484 19.6188 38.0798 19.5614 38.2953 19.4723C38.5188 19.3752 38.7302 19.2344 38.9297 19.05C39.1293 18.8576 39.3288 18.5896 39.5283 18.246L40.3303 16.8558C40.5298 16.5122 40.6376 16.2488 40.6535 16.0657C40.6647 15.932 40.6426 15.8238 40.5873 15.7413L39.8898 14.6985Z" fill="white"/>
<path fill-rule="evenodd" clip-rule="evenodd" d="M30.2956 20.8459L30.4991 20.4983L37.3583 20.4482L38.0559 21.4909L31.1966 21.5411L30.9931 21.8887L30.2956 20.8459Z" fill="white"/>
<path fill-rule="evenodd" clip-rule="evenodd" d="M37.3583 20.4482L37.1548 20.7958L30.2956 20.8459L30.9931 21.8887L37.8524 21.8385L38.0559 21.4909L37.3583 20.4482Z" fill="white"/>
<path fill-rule="evenodd" clip-rule="evenodd" d="M29.9125 21.517L30.128 21.1455L36.9753 21.0955L37.6728 22.1382L30.8255 22.1882L30.6101 22.5598L29.9125 21.517Z" fill="white"/>
<path fill-rule="evenodd" clip-rule="evenodd" d="M36.9753 21.0955L36.7598 21.467L29.9125 21.517L30.6101 22.5598L37.4574 22.5097L37.6728 22.1382L36.9753 21.0955Z" fill="white"/>
<path fill-rule="evenodd" clip-rule="evenodd" d="M29.5175 22.1883L29.7329 21.8167L36.5922 21.7666L37.2898 22.8093L30.4305 22.8595L30.215 23.231L29.5175 22.1883Z" fill="white"/>
<path fill-rule="evenodd" clip-rule="evenodd" d="M36.5922 21.7666L36.3767 22.1381L29.5175 22.1883L30.215 23.231L37.0743 23.1809L37.2898 22.8093L36.5922 21.7666Z" fill="white"/>
<path fill-rule="evenodd" clip-rule="evenodd" d="M29.1464 22.8354L29.3499 22.4998L36.1972 22.4497L36.8947 23.4924L30.0474 23.5425L29.8439 23.8782L29.1464 22.8354Z" fill="white"/>
<path fill-rule="evenodd" clip-rule="evenodd" d="M36.1972 22.4497L36.0056 22.7853L29.1464 22.8354L29.8439 23.8782L36.7032 23.828L36.8947 23.4924L36.1972 22.4497Z" fill="white"/>
<path fill-rule="evenodd" clip-rule="evenodd" d="M35.1318 16.9677L36.7837 16.9557L37.1907 16.2605L37.8883 17.3032L37.4813 17.9984L35.8293 18.0105L35.1318 16.9677Z" fill="white"/>
<path fill-rule="evenodd" clip-rule="evenodd" d="M37.1907 16.2605L35.5388 16.2726L35.1318 16.9677L35.8293 18.0105L36.2363 17.3153L37.8883 17.3032L37.1907 16.2605Z" fill="white"/>
<path fill-rule="evenodd" clip-rule="evenodd" d="M39.6544 19.8467L41.7254 16.2393L42.4229 17.2821L40.352 20.8894L39.6544 19.8467Z" fill="white"/>
<path fill-rule="evenodd" clip-rule="evenodd" d="M41.7254 16.2393L39.7502 16.2538L40.4477 17.2965L42.4229 17.2821L41.7254 16.2393Z" fill="white"/>
<path fill-rule="evenodd" clip-rule="evenodd" d="M39.7502 16.2538L40.8156 14.4081L46.9207 14.3635L47.6182 15.4062L41.5131 15.4508L40.4477 17.2965L39.7502 16.2538Z" fill="white"/>
<path fill-rule="evenodd" clip-rule="evenodd" d="M46.9207 14.3635L45.8553 16.2091L43.8681 16.2237L41.7972 19.831L39.6544 19.8467L40.352 20.8894L42.4948 20.8737L44.5657 17.2664L46.5528 17.2519L47.6182 15.4062L46.9207 14.3635Z" fill="white"/>
<path fill-rule="evenodd" clip-rule="evenodd" d="M36.8772 20.7978L37.0807 20.4503L43.7604 20.4014L44.458 21.4442L37.7783 21.493L37.5748 21.8406L36.8772 20.7978Z" fill="white"/>
<path fill-rule="evenodd" clip-rule="evenodd" d="M43.7604 20.4014L43.5569 20.749L36.8772 20.7978L37.5748 21.8406L44.2545 21.7917L44.458 21.4442L43.7604 20.4014Z" fill="white"/>
<path fill-rule="evenodd" clip-rule="evenodd" d="M36.4941 21.4689L36.7096 21.0974L43.3773 21.0487L44.0749 22.0914L37.4072 22.1402L37.1917 22.5117L36.4941 21.4689Z" fill="white"/>
<path fill-rule="evenodd" clip-rule="evenodd" d="M43.3773 21.0487L43.1618 21.4202L36.4941 21.4689L37.1917 22.5117L43.8594 22.463L44.0749 22.0914L43.3773 21.0487Z" fill="white"/>
<path fill-rule="evenodd" clip-rule="evenodd" d="M36.0991 22.1401L36.3146 21.7686L42.9943 21.7198L43.6918 22.7625L37.0121 22.8114L36.7967 23.1829L36.0991 22.1401Z" fill="white"/>
<path fill-rule="evenodd" clip-rule="evenodd" d="M42.9943 21.7198L42.7788 22.0913L36.0991 22.1401L36.7967 23.1829L43.4763 23.1341L43.6918 22.7625L42.9943 21.7198Z" fill="white"/>
<path fill-rule="evenodd" clip-rule="evenodd" d="M35.728 22.7873L35.9315 22.4517L42.5992 22.4029L43.2968 23.4457L36.6291 23.4944L36.4256 23.8301L35.728 22.7873Z" fill="white"/>
<path fill-rule="evenodd" clip-rule="evenodd" d="M42.5992 22.4029L42.4077 22.7385L35.728 22.7873L36.4256 23.8301L43.1053 23.7812L43.2968 23.4457L42.5992 22.4029Z" fill="white"/>
<path fill-rule="evenodd" clip-rule="evenodd" d="M44.8075 19.541C44.7458 19.4515 44.7211 19.3341 44.7332 19.1889C44.7492 18.9979 44.8569 18.7345 45.0564 18.3989L46.5647 15.7624C46.7563 15.4268 46.9518 15.1668 47.1513 14.9823C47.3508 14.7899 47.5583 14.6492 47.7738 14.5601C47.9972 14.463 48.2287 14.4056 48.4681 14.3879C48.7155 14.3623 48.9828 14.3484 49.2701 14.3463L51.5925 14.3293C51.8718 14.3273 52.1192 14.3374 52.3347 14.3597C52.5581 14.374 52.7257 14.4244 52.8374 14.5111C52.8733 14.5371 52.9031 14.5678 52.9268 14.6032L53.6244 15.646C53.6007 15.6106 53.5709 15.5799 53.535 15.5539C53.4233 15.4672 53.2557 15.4167 53.0322 15.4024C52.8167 15.3801 52.5694 15.37 52.29 15.372L49.9677 15.389C49.6804 15.3911 49.4131 15.405 49.1657 15.4307C48.9262 15.4483 48.6948 15.5057 48.4714 15.6028C48.2559 15.6919 48.0484 15.8327 47.8489 16.0251C47.6494 16.2095 47.4538 16.4695 47.2623 16.8051L45.754 19.4417C45.5545 19.7773 45.4467 20.0406 45.4308 20.2317C45.4187 20.3769 45.4434 20.4943 45.505 20.5838L44.8075 19.541Z" fill="white"/>
<path fill-rule="evenodd" clip-rule="evenodd" d="M52.9268 14.6032C52.9821 14.6858 53.0042 14.794 52.993 14.9277C52.9771 15.1108 52.8693 15.3742 52.6698 15.7178L51.1495 18.3544C50.958 18.69 50.7585 18.954 50.551 19.1464C50.3515 19.3309 50.14 19.4717 49.9165 19.5688C49.7011 19.6658 49.4696 19.7272 49.2222 19.7529C48.9828 19.7705 48.7235 19.7804 48.4441 19.7824L46.1218 19.7994C45.8505 19.8014 45.6031 19.7952 45.3796 19.781C45.1641 19.7587 44.9966 19.7042 44.8768 19.6175C44.85 19.5948 44.8269 19.5693 44.8074 19.5411L45.505 20.5838C45.5245 20.6121 45.5476 20.6376 45.5744 20.6603C45.6941 20.7469 45.8617 20.8014 46.0772 20.8237C46.3006 20.838 46.548 20.8441 46.8194 20.8421L49.1417 20.8252C49.421 20.8231 49.6804 20.8133 49.9198 20.7956C50.1672 20.7699 50.3986 20.7086 50.6141 20.6115C50.8376 20.5144 51.049 20.3736 51.2486 20.1892C51.456 19.9967 51.6556 19.7327 51.8471 19.3971L53.3674 16.7605C53.5669 16.4169 53.6746 16.1536 53.6906 15.9705C53.7018 15.8367 53.6797 15.7286 53.6244 15.646L52.9268 14.6032Z" fill="white"/>
<path fill-rule="evenodd" clip-rule="evenodd" d="M43.2249 20.7514L43.4284 20.4039L50.4672 20.3524L51.1648 21.3952L44.126 21.4466L43.9225 21.7942L43.2249 20.7514Z" fill="white"/>
<path fill-rule="evenodd" clip-rule="evenodd" d="M50.4672 20.3524L50.2637 20.7L43.2249 20.7514L43.9225 21.7942L50.9613 21.7427L51.1648 21.3952L50.4672 20.3524Z" fill="white"/>
<path fill-rule="evenodd" clip-rule="evenodd" d="M42.8418 21.4226L43.0573 21.051L50.0841 20.9997L50.7817 22.0424L43.7549 22.0938L43.5394 22.4653L42.8418 21.4226Z" fill="white"/>
<path fill-rule="evenodd" clip-rule="evenodd" d="M50.0841 20.9997L49.8687 21.3712L42.8418 21.4226L43.5394 22.4653L50.5662 22.4139L50.7817 22.0424L50.0841 20.9997Z" fill="white"/>
<path fill-rule="evenodd" clip-rule="evenodd" d="M42.4468 22.0938L42.6623 21.7222L49.7011 21.6708L50.3986 22.7135L43.3598 22.765L43.1444 23.1365L42.4468 22.0938Z" fill="white"/>
<path fill-rule="evenodd" clip-rule="evenodd" d="M49.7011 21.6708L49.4856 22.0423L42.4468 22.0938L43.1444 23.1365L50.1832 23.0851L50.3986 22.7135L49.7011 21.6708Z" fill="white"/>
<path fill-rule="evenodd" clip-rule="evenodd" d="M42.0757 22.7409L42.2792 22.4053L49.306 22.3539L50.0036 23.3967L42.9768 23.448L42.7733 23.7837L42.0757 22.7409Z" fill="white"/>
<path fill-rule="evenodd" clip-rule="evenodd" d="M49.306 22.3539L49.1145 22.6895L42.0757 22.7409L42.7733 23.7837L49.8121 23.7322L50.0036 23.3967L49.306 22.3539Z" fill="white"/>
<path fill-rule="evenodd" clip-rule="evenodd" d="M47.4386 17.9519L49.2582 17.9386L50.2757 16.1649L50.9732 17.2076L49.9557 18.9813L48.1362 18.9946L47.4386 17.9519Z" fill="white"/>
<path fill-rule="evenodd" clip-rule="evenodd" d="M50.2757 16.1649L48.4681 16.1781L47.4386 17.9519L48.1362 18.9946L49.1656 17.2208L50.9732 17.2076L50.2757 16.1649Z" fill="white"/>
<path fill-rule="evenodd" clip-rule="evenodd" d="M57.7743 17.5183C57.9259 17.5252 58.0256 17.5642 58.0735 17.6355L58.7711 18.6782C58.7232 18.607 58.6235 18.5679 58.4718 18.561L57.7743 17.5183Z" fill="white"/>
<path fill-rule="evenodd" clip-rule="evenodd" d="M58.0735 17.6355C58.078 17.6412 58.0823 17.647 58.0863 17.6529L58.7838 18.6957C58.7798 18.6897 58.7756 18.6839 58.7711 18.6782L58.0735 17.6355Z" fill="white"/>
<path fill-rule="evenodd" clip-rule="evenodd" d="M58.0862 17.653C58.1324 17.7214 58.1481 17.8069 58.1334 17.9095C58.1254 18.013 58.0935 18.1286 58.0376 18.2563C57.9818 18.3761 57.9219 18.4919 57.8581 18.6037L57.2116 19.7183L54.9013 19.7352L55.5988 20.778L57.9092 20.7611L58.5556 19.6465C58.6195 19.5346 58.6793 19.4188 58.7352 19.2991C58.791 19.1713 58.823 19.0557 58.8309 18.9523C58.8456 18.8497 58.8299 18.7642 58.7838 18.6957L58.0862 17.653Z" fill="white"/>
<path fill-rule="evenodd" clip-rule="evenodd" d="M54.9013 19.7352L55.6195 18.4769L56.3171 19.5196L55.5988 20.778L54.9013 19.7352Z" fill="white"/>
<path fill-rule="evenodd" clip-rule="evenodd" d="M55.6195 18.4769L53.8838 18.4896L53.1655 19.7479L51.0228 19.7636L51.7203 20.8063L53.8631 20.7906L54.5813 19.5323L56.3171 19.5196L55.6195 18.4769Z" fill="white"/>
<path fill-rule="evenodd" clip-rule="evenodd" d="M51.0228 19.7636L54.1591 14.3106L58.5404 14.2785C58.8277 14.2764 59.0751 14.2866 59.2826 14.3089C59.4981 14.3232 59.6577 14.3738 59.7614 14.4606C59.7843 14.4796 59.8038 14.5013 59.8201 14.5254L60.5176 15.5681C60.5014 15.544 60.4818 15.5224 60.459 15.5033C60.3552 15.4165 60.1956 15.366 59.9802 15.3516C59.7727 15.3293 59.5253 15.3192 59.238 15.3213L54.8567 15.3533L51.7203 20.8063L51.0228 19.7636Z" fill="white"/>
<path fill-rule="evenodd" clip-rule="evenodd" d="M59.82 14.5254C59.8777 14.611 59.894 14.7283 59.8691 14.8775C59.8452 15.0686 59.7375 15.3319 59.5459 15.6675L59.0551 16.5184C58.9993 16.6143 58.9314 16.7222 58.8516 16.8421C58.7718 16.9541 58.6761 17.0582 58.5643 17.1545C58.4606 17.2507 58.3409 17.3351 58.2052 17.4077C58.0775 17.4723 57.9339 17.5092 57.7743 17.5183L58.4718 18.561C58.6314 18.5519 58.7751 18.5151 58.9028 18.4505C59.0384 18.3779 59.1582 18.2935 59.2619 18.1972C59.3736 18.1009 59.4694 17.9968 59.5492 17.8849C59.629 17.7649 59.6968 17.657 59.7527 17.5611L60.2435 16.7102C60.435 16.3747 60.5428 16.1113 60.5667 15.9202C60.5916 15.7711 60.5752 15.6537 60.5176 15.5681L59.82 14.5254Z" fill="white"/>
<path fill-rule="evenodd" clip-rule="evenodd" d="M50.0052 20.7019L50.2088 20.3543L57.1877 20.3033L57.8853 21.346L50.9063 21.397L50.7028 21.7446L50.0052 20.7019Z" fill="white"/>
<path fill-rule="evenodd" clip-rule="evenodd" d="M57.1877 20.3033L56.9842 20.6509L50.0052 20.7019L50.7028 21.7446L57.6818 21.6936L57.8853 21.346L57.1877 20.3033Z" fill="white"/>
<path fill-rule="evenodd" clip-rule="evenodd" d="M49.6222 21.373L49.8377 21.0015L56.8047 20.9505L57.5022 21.9933L50.5352 22.0442L50.3198 22.4157L49.6222 21.373Z" fill="white"/>
<path fill-rule="evenodd" clip-rule="evenodd" d="M56.8047 20.9505L56.5892 21.3221L49.6222 21.373L50.3198 22.4157L57.2867 22.3648L57.5022 21.9933L56.8047 20.9505Z" fill="white"/>
<path fill-rule="evenodd" clip-rule="evenodd" d="M49.2271 22.0442L49.4426 21.6727L56.4216 21.6216L57.1191 22.6644L50.1402 22.7154L49.9247 23.0869L49.2271 22.0442Z" fill="white"/>
<path fill-rule="evenodd" clip-rule="evenodd" d="M56.4216 21.6216L56.2061 21.9932L49.2271 22.0442L49.9247 23.0869L56.9037 23.0359L57.1191 22.6644L56.4216 21.6216Z" fill="white"/>
<path fill-rule="evenodd" clip-rule="evenodd" d="M48.856 22.6914L49.0596 22.3557L56.0265 22.3048L56.7241 23.3475L49.7571 23.3984L49.5536 23.7341L48.856 22.6914Z" fill="white"/>
<path fill-rule="evenodd" clip-rule="evenodd" d="M56.0265 22.3048L55.835 22.6403L48.856 22.6914L49.5536 23.7341L56.5326 23.6831L56.7241 23.3475L56.0265 22.3048Z" fill="white"/>
<path fill-rule="evenodd" clip-rule="evenodd" d="M54.8534 16.7997L56.6011 16.787L56.9842 16.1158L57.6818 17.1586L57.2987 17.8297L55.551 17.8425L54.8534 16.7997Z" fill="white"/>
<path fill-rule="evenodd" clip-rule="evenodd" d="M56.9842 16.1158L55.2484 16.1285L54.8534 16.7997L55.551 17.8425L55.946 17.1713L57.6818 17.1586L56.9842 16.1158Z" fill="white"/>
<path fill-rule="evenodd" clip-rule="evenodd" d="M64.9716 16.8929C65.1232 16.8997 65.223 16.9388 65.2709 17.01L65.9684 18.0528C65.9205 17.9815 65.8208 17.9424 65.6692 17.9356L64.9716 16.8929Z" fill="white"/>
<path fill-rule="evenodd" clip-rule="evenodd" d="M65.2709 17.01C65.3187 17.0813 65.3347 17.1726 65.3187 17.2841C65.3108 17.3876 65.2788 17.5032 65.223 17.6309C65.1671 17.7507 65.1073 17.8665 65.0434 17.9783L64.8878 18.254C64.6963 18.5895 64.5047 18.8535 64.3132 19.0458C64.1217 19.2302 63.9182 19.3709 63.7027 19.468C63.4952 19.557 63.2717 19.6144 63.0323 19.64C62.8009 19.6655 62.5455 19.6793 62.2662 19.6814L57.8849 19.7134L58.5825 20.7561L62.9638 20.7241C63.2431 20.7221 63.4984 20.7083 63.7299 20.6827C63.9693 20.6571 64.1928 20.5998 64.4002 20.5107C64.6157 20.4137 64.8192 20.273 65.0108 20.0886C65.2023 19.8962 65.3938 19.6323 65.5854 19.2967L65.741 19.0211C65.8048 18.9092 65.8647 18.7934 65.9205 18.6737C65.9764 18.546 66.0083 18.4304 66.0163 18.3269C66.0323 18.2154 66.0163 18.124 65.9684 18.0527L65.2709 17.01Z" fill="white"/>
<path fill-rule="evenodd" clip-rule="evenodd" d="M57.8849 19.7134L61.0212 14.2604L65.4025 14.2284C65.6898 14.2263 65.9372 14.2364 66.1447 14.2587C66.3602 14.2731 66.5198 14.3236 66.6235 14.4104C66.6464 14.4295 66.6659 14.4511 66.6822 14.4752L67.3797 15.518C67.3635 15.4938 67.3439 15.4722 67.3211 15.4531C67.2174 15.3664 67.0578 15.3158 66.8423 15.3015C66.6348 15.2791 66.3874 15.269 66.1001 15.2711L61.7188 15.3031L58.5825 20.7561L57.8849 19.7134Z" fill="white"/>
<path fill-rule="evenodd" clip-rule="evenodd" d="M66.6822 14.4752C66.7398 14.5608 66.7562 14.6782 66.7313 14.8273C66.7073 15.0184 66.5996 15.2818 66.4081 15.6173L66.2525 15.8929C66.1886 15.9889 66.1168 16.0968 66.037 16.2167C65.9572 16.3287 65.8654 16.4328 65.7617 16.529C65.6579 16.6253 65.5382 16.7097 65.4025 16.7823C65.2748 16.8469 65.1312 16.8837 64.9716 16.8928L65.6692 17.9356C65.8288 17.9265 65.9724 17.8896 66.1001 17.825C66.2358 17.7524 66.3555 17.668 66.4592 17.5718C66.563 17.4755 66.6547 17.3715 66.7346 17.2595C66.8144 17.1396 66.8862 17.0316 66.95 16.9357L67.1056 16.6601C67.2972 16.3245 67.4049 16.0612 67.4289 15.87C67.4538 15.7209 67.4374 15.6035 67.3797 15.518L66.6822 14.4752Z" fill="white"/>
<path fill-rule="evenodd" clip-rule="evenodd" d="M56.8674 20.6517L57.0709 20.3041L64.1695 20.2523L64.8671 21.295L57.7684 21.3469L57.5649 21.6945L56.8674 20.6517Z" fill="white"/>
<path fill-rule="evenodd" clip-rule="evenodd" d="M64.1695 20.2523L63.966 20.5998L56.8674 20.6517L57.5649 21.6945L64.6636 21.6426L64.8671 21.295L64.1695 20.2523Z" fill="white"/>
<path fill-rule="evenodd" clip-rule="evenodd" d="M56.4843 21.3228L56.6998 20.9513L63.7865 20.8995L64.484 21.9422L57.3974 21.994L57.1819 22.3656L56.4843 21.3228Z" fill="white"/>
<path fill-rule="evenodd" clip-rule="evenodd" d="M63.7865 20.8995L63.571 21.271L56.4843 21.3228L57.1819 22.3656L64.2686 22.3138L64.484 21.9422L63.7865 20.8995Z" fill="white"/>
<path fill-rule="evenodd" clip-rule="evenodd" d="M56.0893 21.994L56.3048 21.6225L63.4034 21.5706L64.101 22.6134L57.0023 22.6652L56.7869 23.0368L56.0893 21.994Z" fill="white"/>
<path fill-rule="evenodd" clip-rule="evenodd" d="M63.4034 21.5706L63.188 21.9422L56.0893 21.994L56.7869 23.0368L63.8855 22.9849L64.101 22.6134L63.4034 21.5706Z" fill="white"/>
<path fill-rule="evenodd" clip-rule="evenodd" d="M55.7182 22.6412L55.9217 22.3056L63.0084 22.2538L63.706 23.2965L56.6193 23.3483L56.4158 23.6839L55.7182 22.6412Z" fill="white"/>
<path fill-rule="evenodd" clip-rule="evenodd" d="M63.0084 22.2538L62.8169 22.5893L55.7182 22.6412L56.4158 23.6839L63.5144 23.6321L63.706 23.2965L63.0084 22.2538Z" fill="white"/>
<path fill-rule="evenodd" clip-rule="evenodd" d="M61.919 16.402L63.6548 16.3893L63.9421 15.886L64.6397 16.9287L64.3524 17.432L62.6166 17.4447L61.919 16.402Z" fill="white"/>
<path fill-rule="evenodd" clip-rule="evenodd" d="M63.9421 15.886L62.2063 15.8986L61.919 16.402L62.6166 17.4447L62.9039 16.9414L64.6397 16.9287L63.9421 15.886Z" fill="white"/>
<path fill-rule="evenodd" clip-rule="evenodd" d="M60.9734 18.032L62.7091 18.0193L63.0084 17.5159L63.706 18.5586L63.4067 19.062L61.6709 19.0747L60.9734 18.032Z" fill="white"/>
<path fill-rule="evenodd" clip-rule="evenodd" d="M63.0084 17.5159L61.2726 17.5286L60.9734 18.032L61.6709 19.0747L61.9702 18.5713L63.706 18.5586L63.0084 17.5159Z" fill="white"/>
<path fill-rule="evenodd" clip-rule="evenodd" d="M64.7354 19.6633L65.7888 17.8178L69.6793 17.7893L70.0623 17.1182L70.7599 18.1609L70.3768 18.8321L66.4863 18.8605L65.4329 20.7061L64.7354 19.6633Z" fill="white"/>
<path fill-rule="evenodd" clip-rule="evenodd" d="M70.0624 17.1182L67.9914 17.1333C67.7121 17.1354 67.4647 17.1292 67.2492 17.1149C67.0338 17.0926 66.8742 17.0381 66.7704 16.9513C66.7551 16.9362 66.7413 16.9198 66.729 16.9021L67.4266 17.9449C67.4389 17.9625 67.4526 17.9789 67.468 17.9941C67.5717 18.0808 67.7313 18.1353 67.9468 18.1576C68.1623 18.172 68.4097 18.1781 68.689 18.1761L70.7599 18.1609L70.0624 17.1182Z" fill="white"/>
<path fill-rule="evenodd" clip-rule="evenodd" d="M66.729 16.9021C66.6647 16.8095 66.6426 16.683 66.6627 16.5224C66.6866 16.3313 66.7983 16.068 66.9979 15.7323L67.8717 14.2103L70.0145 14.1946L70.712 15.2374L68.5693 15.253L67.6954 16.7751C67.4959 17.1107 67.3842 17.3741 67.3602 17.5652C67.3401 17.7257 67.3622 17.8523 67.4266 17.9448L66.729 16.9021Z" fill="white"/>
<path fill-rule="evenodd" clip-rule="evenodd" d="M70.0145 14.1946L69.2603 15.5129L69.9579 16.5557L70.712 15.2374L70.0145 14.1946Z" fill="white"/>
<path fill-rule="evenodd" clip-rule="evenodd" d="M69.2603 15.5129L70.9961 15.5002L71.7502 14.182L74.0726 14.165L74.7701 15.2077L72.4478 15.2247L71.6936 16.543L69.9579 16.5557L69.2603 15.5129Z" fill="white"/>
<path fill-rule="evenodd" clip-rule="evenodd" d="M74.0726 14.165L71.7383 18.2039C71.5467 18.5394 71.3552 18.8034 71.1637 18.9957C70.9721 19.1881 70.7686 19.3328 70.5531 19.4299C70.3457 19.5189 70.1222 19.5762 69.8828 19.6018C69.6513 19.6194 69.396 19.6293 69.1167 19.6313L64.7354 19.6633L65.4329 20.7061L69.8142 20.674C70.0935 20.672 70.3489 20.6622 70.5803 20.6446C70.8198 20.6189 71.0432 20.5616 71.2507 20.4726C71.4662 20.3755 71.6697 20.2308 71.8612 20.0385C72.0528 19.8461 72.2443 19.5822 72.4358 19.2466L74.7701 15.2077L74.0726 14.165Z" fill="white"/>
<path fill-rule="evenodd" clip-rule="evenodd" d="M63.7178 20.6017L63.9213 20.2541L70.9003 20.2031L71.5979 21.2458L64.6189 21.2968L64.4154 21.6444L63.7178 20.6017Z" fill="white"/>
<path fill-rule="evenodd" clip-rule="evenodd" d="M70.9003 20.2031L70.6968 20.5506L63.7178 20.6017L64.4154 21.6444L71.3944 21.5934L71.5979 21.2458L70.9003 20.2031Z" fill="white"/>
<path fill-rule="evenodd" clip-rule="evenodd" d="M63.3348 21.2728L63.5503 20.9012L70.5172 20.8503L71.2148 21.893L64.2478 21.944L64.0323 22.3155L63.3348 21.2728Z" fill="white"/>
<path fill-rule="evenodd" clip-rule="evenodd" d="M70.5172 20.8503L70.3018 21.2218L63.3348 21.2728L64.0323 22.3155L70.9993 22.2646L71.2148 21.893L70.5172 20.8503Z" fill="white"/>
<path fill-rule="evenodd" clip-rule="evenodd" d="M62.9398 21.944L63.1552 21.5724L70.1342 21.5214L70.8318 22.5642L63.8528 22.6152L63.6373 22.9867L62.9398 21.944Z" fill="white"/>
<path fill-rule="evenodd" clip-rule="evenodd" d="M70.1342 21.5214L69.9187 21.893L62.9398 21.944L63.6373 22.9867L70.6163 22.9357L70.8318 22.5642L70.1342 21.5214Z" fill="white"/>
<path fill-rule="evenodd" clip-rule="evenodd" d="M62.5687 22.5911L62.7722 22.2555L69.7392 22.2046L70.4367 23.2473L63.4697 23.2982L63.2662 23.6339L62.5687 22.5911Z" fill="white"/>
<path fill-rule="evenodd" clip-rule="evenodd" d="M69.7392 22.2046L69.5476 22.5401L62.5687 22.5911L63.2662 23.6339L70.2452 23.5829L70.4367 23.2473L69.7392 22.2046Z" fill="white"/>
<path fill-rule="evenodd" clip-rule="evenodd" d="M72.7493 19.6048L74.8203 15.9974L75.5179 17.0401L73.4469 20.6475L72.7493 19.6048Z" fill="white"/>
<path fill-rule="evenodd" clip-rule="evenodd" d="M74.8203 15.9974L72.8451 16.0118L73.5426 17.0546L75.5179 17.0401L74.8203 15.9974Z" fill="white"/>
<path fill-rule="evenodd" clip-rule="evenodd" d="M72.8451 16.0118L73.9105 14.1662L80.0156 14.1216L80.7131 15.1643L74.608 15.2089L73.5426 17.0546L72.8451 16.0118Z" fill="white"/>
<path fill-rule="evenodd" clip-rule="evenodd" d="M80.0156 14.1216L78.9503 15.9672L76.963 15.9817L74.8921 19.5891L72.7493 19.6048L73.4469 20.6475L75.5896 20.6318L77.6606 17.0245L79.6478 17.01L80.7131 15.1643L80.0156 14.1216Z" fill="white"/>
<path fill-rule="evenodd" clip-rule="evenodd" d="M69.9722 20.5559L70.1756 20.2083L76.8553 20.1595L77.5528 21.2023L70.8731 21.2511L70.6697 21.5987L69.9722 20.5559Z" fill="white"/>
<path fill-rule="evenodd" clip-rule="evenodd" d="M76.8553 20.1595L76.6519 20.5071L69.9722 20.5559L70.6697 21.5987L77.3494 21.5498L77.5528 21.2023L76.8553 20.1595Z" fill="white"/>
<path fill-rule="evenodd" clip-rule="evenodd" d="M69.589 21.227L69.8046 20.8555L76.4722 20.8068L77.1698 21.8495L70.5022 21.8982L70.2866 22.2698L69.589 21.227Z" fill="white"/>
<path fill-rule="evenodd" clip-rule="evenodd" d="M76.4722 20.8068L76.2567 21.1783L69.589 21.227L70.2866 22.2698L76.9543 22.221L77.1698 21.8495L76.4722 20.8068Z" fill="white"/>
<path fill-rule="evenodd" clip-rule="evenodd" d="M69.1941 21.8983L69.4095 21.5267L76.0892 21.4779L76.7867 22.5206L70.107 22.5695L69.8917 22.941L69.1941 21.8983Z" fill="white"/>
<path fill-rule="evenodd" clip-rule="evenodd" d="M76.0892 21.4779L75.8738 21.8494L69.1941 21.8983L69.8917 22.941L76.5713 22.8922L76.7867 22.5206L76.0892 21.4779Z" fill="white"/>
<path fill-rule="evenodd" clip-rule="evenodd" d="M68.8229 22.5454L69.0264 22.2097L75.6941 22.161L76.3917 23.2037L69.7239 23.2525L69.5204 23.5881L68.8229 22.5454Z" fill="white"/>
<path fill-rule="evenodd" clip-rule="evenodd" d="M75.6941 22.161L75.5026 22.4966L68.8229 22.5454L69.5204 23.5881L76.2001 23.5393L76.3917 23.2037L75.6941 22.161Z" fill="white"/>
<path fill-rule="evenodd" clip-rule="evenodd" d="M80.8575 16.2636L83.2277 16.2462L83.9253 17.289L81.555 17.3063L80.8575 16.2636Z" fill="white"/>
<path fill-rule="evenodd" clip-rule="evenodd" d="M83.2277 16.2462L82.5813 17.3728L80.2111 17.3901L79.9238 17.8815L80.6213 18.9242L80.9086 18.4329L83.2788 18.4155L83.9253 17.289L83.2277 16.2462Z" fill="white"/>
<path fill-rule="evenodd" clip-rule="evenodd" d="M79.9238 17.8815L83.7544 17.8535L84.452 18.8963L80.6213 18.9243L79.9238 17.8815Z" fill="white"/>
<path fill-rule="evenodd" clip-rule="evenodd" d="M83.7544 17.8535L82.7968 19.5313L76.8114 19.5751L77.5089 20.6178L83.4943 20.5741L84.452 18.8963L83.7544 17.8535Z" fill="white"/>
<path fill-rule="evenodd" clip-rule="evenodd" d="M76.8114 19.5751L79.9597 14.122L85.2149 14.0836L85.9124 15.1263L80.6572 15.1647L77.5089 20.6178L76.8114 19.5751Z" fill="white"/>
<path fill-rule="evenodd" clip-rule="evenodd" d="M85.2148 14.0836L84.2572 15.7494L81.1448 15.7722L80.8575 16.2636L81.555 17.3063L81.8423 16.8149L84.9547 16.7922L85.9124 15.1263L85.2148 14.0836Z" fill="white"/>
<path fill-rule="evenodd" clip-rule="evenodd" d="M75.7939 20.5134L75.9974 20.1658L82.8566 20.1157L83.5542 21.1584L76.695 21.2085L76.4914 21.5561L75.7939 20.5134Z" fill="white"/>
<path fill-rule="evenodd" clip-rule="evenodd" d="M82.8566 20.1157L82.6531 20.4632L75.7939 20.5134L76.4914 21.5561L83.3507 21.506L83.5542 21.1584L82.8566 20.1157Z" fill="white"/>
<path fill-rule="evenodd" clip-rule="evenodd" d="M75.4108 21.1845L75.6263 20.813L82.4855 20.7628L83.1831 21.8056L76.3238 21.8557L76.1084 22.2272L75.4108 21.1845Z" fill="white"/>
<path fill-rule="evenodd" clip-rule="evenodd" d="M82.4855 20.7628L82.27 21.1344L75.4108 21.1845L76.1084 22.2272L82.9676 22.1771L83.1831 21.8056L82.4855 20.7628Z" fill="white"/>
<path fill-rule="evenodd" clip-rule="evenodd" d="M75.0157 21.8557L75.2312 21.4842L82.0905 21.434L82.788 22.4768L75.9288 22.5269L75.7133 22.8984L75.0157 21.8557Z" fill="white"/>
<path fill-rule="evenodd" clip-rule="evenodd" d="M82.0905 21.434L81.887 21.8055L75.0157 21.8557L75.7133 22.8984L82.5845 22.8482L82.788 22.4768L82.0905 21.434Z" fill="white"/>
<path fill-rule="evenodd" clip-rule="evenodd" d="M74.6447 22.5029L74.8482 22.1672L81.7074 22.1171L82.405 23.1598L75.5457 23.2099L75.3422 23.5456L74.6447 22.5029Z" fill="white"/>
<path fill-rule="evenodd" clip-rule="evenodd" d="M81.7074 22.1171L81.5159 22.4526L74.6447 22.5029L75.3422 23.5456L82.2134 23.4954L82.405 23.1598L81.7074 22.1171Z" fill="white"/>
<path fill-rule="evenodd" clip-rule="evenodd" d="M86.6675 16.2092L88.6786 16.1945C88.9659 16.1924 89.2173 16.2025 89.4328 16.2248C89.6562 16.239 89.8238 16.2935 89.9355 16.3881C89.9623 16.4109 89.9853 16.4364 90.0043 16.4646L90.7018 17.5074C90.6828 17.4791 90.6599 17.4536 90.6331 17.4309C90.5214 17.3362 90.3538 17.2818 90.1303 17.2675C89.9148 17.2452 89.6635 17.2351 89.3762 17.2372L87.3651 17.2519L86.6675 16.2092Z" fill="white"/>
<path fill-rule="evenodd" clip-rule="evenodd" d="M90.0042 16.4646C90.0644 16.5542 90.0854 16.6716 90.0672 16.8168C90.0512 16.9999 89.9475 17.2593 89.756 17.5948L89.4806 18.0742C89.2811 18.4098 89.0776 18.6739 88.8701 18.8663C88.6706 19.0587 88.4591 19.2035 88.2357 19.3006C88.0202 19.3897 87.7888 19.4471 87.5414 19.4728C87.3019 19.4904 87.0466 19.5002 86.7752 19.5022L82.5615 19.533L83.2591 20.5758L87.4728 20.545C87.7441 20.543 87.9995 20.5331 88.2389 20.5155C88.4863 20.4898 88.7178 20.4324 88.9332 20.3433C89.1567 20.2462 89.3682 20.1015 89.5677 19.9091C89.7752 19.7166 89.9787 19.4526 90.1782 19.1169L90.4535 18.6376C90.6451 18.302 90.7488 18.0427 90.7648 17.8596C90.783 17.7143 90.762 17.5969 90.7018 17.5074L90.0042 16.4646Z" fill="white"/>
<path fill-rule="evenodd" clip-rule="evenodd" d="M82.5615 19.533L83.5192 17.8672L87.4695 17.8383L87.7568 17.3588L88.4544 18.4016L88.1671 18.881L84.2167 18.9099L83.2591 20.5758L82.5615 19.533Z" fill="white"/>
<path fill-rule="evenodd" clip-rule="evenodd" d="M87.7569 17.3588L85.6979 17.3739C85.4425 17.3757 85.2071 17.3695 84.9916 17.3552C84.7761 17.3408 84.6086 17.2903 84.4888 17.2037C84.462 17.181 84.4389 17.1557 84.4194 17.1279L85.117 18.1706C85.1365 18.1985 85.1596 18.2237 85.1864 18.2464C85.3061 18.3331 85.4737 18.3836 85.6892 18.3979C85.9047 18.4122 86.1401 18.4185 86.3955 18.4166L88.4544 18.4016L87.7569 17.3588Z" fill="white"/>
<path fill-rule="evenodd" clip-rule="evenodd" d="M84.4194 17.1279C84.3578 17.0398 84.3331 16.9262 84.3452 16.7871C84.3611 16.596 84.4689 16.3247 84.6684 15.9732L84.9437 15.4818C85.1353 15.1463 85.3308 14.8863 85.5303 14.7018C85.7298 14.5094 85.9373 14.3687 86.1528 14.2796C86.3762 14.1825 86.6077 14.1251 86.8471 14.1074C87.0945 14.0817 87.3618 14.0679 87.6491 14.0658L91.6354 14.0366L92.3329 15.0794L88.3467 15.1085C88.0594 15.1106 87.792 15.1245 87.5446 15.1502C87.3052 15.1678 87.0738 15.2252 86.8503 15.3223C86.6349 15.4114 86.4274 15.5522 86.2279 15.7446C86.0283 15.929 85.8328 16.189 85.6413 16.5246L85.366 17.0159C85.1664 17.3674 85.0587 17.6387 85.0428 17.8298C85.0306 17.969 85.0554 18.0826 85.117 18.1706L84.4194 17.1279Z" fill="white"/>
<path fill-rule="evenodd" clip-rule="evenodd" d="M91.6354 14.0366L90.6777 15.6786L86.9428 15.7178L86.6675 16.2092L87.3651 17.2519L87.6404 16.7606L91.3753 16.7213L92.3329 15.0794L91.6354 14.0366Z" fill="white"/>
<path fill-rule="evenodd" clip-rule="evenodd" d="M81.6039 20.4709L81.8074 20.1233L88.7863 20.0723L89.4839 21.1151L82.5049 21.1661L82.3014 21.5137L81.6039 20.4709Z" fill="white"/>
<path fill-rule="evenodd" clip-rule="evenodd" d="M88.7863 20.0723L88.5828 20.4199L81.6039 20.4709L82.3014 21.5137L89.2804 21.4626L89.4839 21.1151L88.7863 20.0723Z" fill="white"/>
<path fill-rule="evenodd" clip-rule="evenodd" d="M81.2208 21.142L81.4363 20.7705L88.4033 20.7196L89.1009 21.7623L82.1339 21.8132L81.9184 22.1848L81.2208 21.142Z" fill="white"/>
<path fill-rule="evenodd" clip-rule="evenodd" d="M88.4033 20.7196L88.1878 21.0911L81.2208 21.142L81.9184 22.1848L88.8854 22.1338L89.1009 21.7623L88.4033 20.7196Z" fill="white"/>
<path fill-rule="evenodd" clip-rule="evenodd" d="M80.8258 21.8132L81.0412 21.4417L88.0202 21.3907L88.7178 22.4334L81.7388 22.4844L81.5233 22.856L80.8258 21.8132Z" fill="white"/>
<path fill-rule="evenodd" clip-rule="evenodd" d="M88.0202 21.3907L87.8047 21.7622L80.8258 21.8132L81.5233 22.856L88.5023 22.805L88.7178 22.4334L88.0202 21.3907Z" fill="white"/>
<path fill-rule="evenodd" clip-rule="evenodd" d="M80.4547 22.4604L80.6582 22.1247L87.6252 22.0738L88.3227 23.1166L81.3557 23.1675L81.1522 23.5031L80.4547 22.4604Z" fill="white"/>
<path fill-rule="evenodd" clip-rule="evenodd" d="M87.6252 22.0738L87.4336 22.4094L80.4547 22.4604L81.1522 23.5031L88.1312 23.4521L88.3227 23.1166L87.6252 22.0738Z" fill="white"/>
<path d="M26.1958 20.8759L20.5096 20.9175L20.785 20.4381L17.3853 20.4629L17.11 20.9423L14.5482 20.961L18.2352 14.5612L24.6156 14.5146C25.0386 14.5115 25.3937 14.5248 25.681 14.5545C25.9763 14.5762 26.1838 14.6503 26.3035 14.7767C26.4232 14.9031 26.4512 15.1018 26.3873 15.3728C26.3314 15.6358 26.1639 16.007 25.8845 16.4864L25.3099 17.4811C25.1663 17.7288 25.0186 17.9566 24.867 18.1646C24.7234 18.3725 24.5598 18.5567 24.3762 18.7172C24.2006 18.8696 24.0011 18.9984 23.7777 19.1034C23.5622 19.2005 23.3068 19.262 23.0116 19.2881C23.4744 19.3324 23.7338 19.4538 23.7897 19.6523C23.8535 19.8428 23.7697 20.1418 23.5383 20.5492L26.3993 20.5283L26.1958 20.8759ZM25.8007 21.5471L20.1266 21.5886L20.3421 21.2171L26.0162 21.1756L25.8007 21.5471ZM25.4177 22.2182L19.7315 22.2598L19.947 21.8883L25.6331 21.8467L25.4177 22.2182ZM25.0466 22.8654L19.3724 22.9069L19.564 22.5713L25.2381 22.5298L25.0466 22.8654ZM16.7149 21.6135L14.1532 21.6323L14.3686 21.2607L16.9304 21.242L16.7149 21.6135ZM16.3319 22.2846L13.7701 22.3034L13.9856 21.9318L16.5473 21.9131L16.3319 22.2846ZM15.9608 22.9318L13.399 22.9505L13.5905 22.615L16.1523 22.5962L15.9608 22.9318ZM19.4562 16.8675L18.6422 18.2817L22.0659 18.2567L22.8799 16.8425L19.4562 16.8675ZM30.6259 19.9127L28.4831 19.9283L29.2851 18.5381L27.4775 18.5513L26.6755 19.9415L24.5327 19.9572L26.8551 15.9064C27.0546 15.5629 27.2541 15.2988 27.4536 15.1144C27.6611 14.9219 27.8726 14.7812 28.0881 14.6921C28.3115 14.595 28.5429 14.5376 28.7824 14.5199C29.0298 14.4942 29.2891 14.4804 29.5605 14.4784L31.8828 14.4614C32.1621 14.4594 32.4095 14.4695 32.625 14.4918C32.8484 14.5061 33.016 14.5606 33.1277 14.6552C33.2395 14.7499 33.2874 14.8927 33.2714 15.0838C33.2554 15.2669 33.1517 15.5263 32.9602 15.8618L30.6259 19.9127ZM30.554 20.8441L23.5152 20.8955L23.7187 20.5479L30.7575 20.4965L30.554 20.8441ZM30.159 21.5153L23.1322 21.5666L23.3476 21.1951L30.3745 21.1437L30.159 21.5153ZM29.7759 22.1864L22.7372 22.2378L22.9526 21.8663L29.9914 21.8148L29.7759 22.1864ZM29.4048 22.8335L22.3661 22.885L22.5696 22.5493L29.5964 22.498L29.4048 22.8335ZM28.7584 16.3102L28.3634 16.9934L30.1829 16.9801L30.578 16.2969L28.7584 16.3102ZM38.8307 17.2033C38.6312 17.5469 38.4317 17.8148 38.2322 18.0072C38.0327 18.1917 37.8212 18.3325 37.5977 18.4296C37.3823 18.5187 37.1508 18.5761 36.9034 18.6017C36.664 18.6194 36.4046 18.6293 36.1253 18.6313L34.1741 18.6456L33.4558 19.892L31.3131 19.9076L34.4494 14.4546L38.5554 14.4246C38.8347 14.4226 39.0821 14.4327 39.2976 14.455C39.521 14.4693 39.6886 14.5197 39.8004 14.6065C39.9201 14.6931 39.9719 14.8319 39.956 15.023C39.94 15.2061 39.8323 15.4695 39.6328 15.813L38.8307 17.2033ZM37.1548 20.7958L30.2956 20.8459L30.4991 20.4984L37.3583 20.4482L37.1548 20.7958ZM36.7598 21.467L29.9125 21.5171L30.128 21.1455L36.9753 21.0955L36.7598 21.467ZM36.3767 22.1381L29.5175 22.1883L29.7329 21.8167L36.5922 21.7666L36.3767 22.1381ZM36.0056 22.7853L29.1464 22.8354L29.3499 22.4998L36.1972 22.4497L36.0056 22.7853ZM35.5388 16.2726L35.1318 16.9678L36.7837 16.9557L37.1907 16.2605L35.5388 16.2726ZM45.8553 16.2091L43.8681 16.2237L41.7972 19.831L39.6544 19.8467L41.7254 16.2393L39.7502 16.2538L40.8156 14.4081L46.9207 14.3635L45.8553 16.2091ZM43.5569 20.749L36.8772 20.7978L37.0807 20.4503L43.7604 20.4014L43.5569 20.749ZM43.1618 21.4202L36.4941 21.469L36.7096 21.0974L43.3773 21.0487L43.1618 21.4202ZM42.7788 22.0913L36.0991 22.1402L36.3146 21.7686L42.9943 21.7198L42.7788 22.0913ZM42.4077 22.7385L35.728 22.7873L35.9315 22.4517L42.5992 22.4029L42.4077 22.7385ZM51.1495 18.3544C50.958 18.6899 50.7585 18.954 50.551 19.1464C50.3515 19.3309 50.14 19.4717 49.9165 19.5688C49.7011 19.6658 49.4696 19.7272 49.2222 19.7529C48.9828 19.7705 48.7235 19.7804 48.4441 19.7824L46.1218 19.7994C45.8505 19.8014 45.6031 19.7952 45.3796 19.7809C45.1642 19.7586 44.9966 19.7042 44.8769 19.6175C44.7651 19.5229 44.7172 19.38 44.7332 19.1889C44.7492 18.9979 44.8569 18.7345 45.0564 18.3989L46.5647 15.7624C46.7563 15.4268 46.9518 15.1668 47.1513 14.9824C47.3508 14.7899 47.5583 14.6492 47.7738 14.5601C47.9972 14.463 48.2287 14.4056 48.4681 14.3879C48.7155 14.3623 48.9828 14.3484 49.2701 14.3463L51.5925 14.3293C51.8718 14.3273 52.1192 14.3374 52.3346 14.3597C52.5581 14.374 52.7257 14.4245 52.8374 14.5112C52.9571 14.5978 53.009 14.7367 52.993 14.9277C52.9771 15.1108 52.8693 15.3742 52.6698 15.7177L51.1495 18.3544ZM50.2637 20.7L43.2249 20.7514L43.4284 20.4039L50.4672 20.3524L50.2637 20.7ZM49.8687 21.3712L42.8418 21.4226L43.0573 21.051L50.0841 20.9997L49.8687 21.3712ZM49.4856 22.0423L42.4468 22.0938L42.6623 21.7222L49.7011 21.6708L49.4856 22.0423ZM49.1145 22.6895L42.0757 22.7409L42.2792 22.4053L49.306 22.3539L49.1145 22.6895ZM48.4681 16.1781L47.4386 17.9519L49.2582 17.9386L50.2757 16.1649L48.4681 16.1781ZM59.0551 16.5184C58.9993 16.6143 58.9314 16.7222 58.8516 16.8421C58.7718 16.9541 58.6761 17.0582 58.5643 17.1545C58.4606 17.2507 58.3409 17.3351 58.2052 17.4077C58.0775 17.4723 57.9339 17.5092 57.7743 17.5183C57.9259 17.5252 58.0257 17.5642 58.0735 17.6355C58.1294 17.7067 58.1493 17.798 58.1334 17.9095C58.1254 18.013 58.0935 18.1286 58.0376 18.2563C57.9818 18.3761 57.9219 18.4919 57.8581 18.6037L57.2116 19.7183L54.9013 19.7352L55.6195 18.4769L53.8838 18.4896L53.1655 19.7479L51.0228 19.7636L54.1591 14.3105L58.5404 14.2785C58.8277 14.2764 59.0751 14.2866 59.2826 14.3089C59.4981 14.3232 59.6577 14.3738 59.7614 14.4605C59.8652 14.5473 59.9011 14.6863 59.8691 14.8775C59.8452 15.0686 59.7375 15.3319 59.5459 15.6675L59.0551 16.5184ZM56.9842 20.6509L50.0052 20.7019L50.2087 20.3543L57.1877 20.3033L56.9842 20.6509ZM56.5892 21.3221L49.6222 21.373L49.8376 21.0015L56.8046 20.9505L56.5892 21.3221ZM56.2061 21.9932L49.2271 22.0442L49.4426 21.6727L56.4216 21.6217L56.2061 21.9932ZM55.835 22.6404L48.856 22.6914L49.0595 22.3557L56.0265 22.3048L55.835 22.6404ZM55.2484 16.1285L54.8534 16.7997L56.6011 16.787L56.9842 16.1158L55.2484 16.1285ZM66.2525 15.893C66.1886 15.9889 66.1168 16.0968 66.037 16.2168C65.9572 16.3287 65.8654 16.4328 65.7617 16.529C65.6579 16.6253 65.5382 16.7097 65.4025 16.7823C65.2748 16.8469 65.1312 16.8837 64.9716 16.8929C65.1232 16.8997 65.223 16.9388 65.2709 17.01C65.3187 17.0813 65.3347 17.1726 65.3187 17.2841C65.3108 17.3876 65.2788 17.5032 65.223 17.6309C65.1671 17.7507 65.1073 17.8665 65.0434 17.9784L64.8878 18.254C64.6963 18.5895 64.5047 18.8535 64.3132 19.0458C64.1217 19.2302 63.9182 19.371 63.7027 19.468C63.4952 19.557 63.2717 19.6144 63.0323 19.64C62.8009 19.6655 62.5455 19.6793 62.2662 19.6814L57.8849 19.7134L61.0212 14.2604L65.4025 14.2284C65.6898 14.2263 65.9372 14.2364 66.1447 14.2587C66.3602 14.2731 66.5198 14.3236 66.6236 14.4104C66.7273 14.4971 66.7632 14.6361 66.7313 14.8273C66.7074 15.0184 66.5996 15.2818 66.4081 15.6173L66.2525 15.893ZM63.966 20.5998L56.8674 20.6517L57.0709 20.3041L64.1695 20.2523L63.966 20.5998ZM63.571 21.271L56.4843 21.3228L56.6998 20.9513L63.7865 20.8995L63.571 21.271ZM63.1879 21.9422L56.0893 21.994L56.3048 21.6225L63.4034 21.5706L63.1879 21.9422ZM62.8168 22.5893L55.7182 22.6412L55.9217 22.3056L63.0084 22.2538L62.8168 22.5893ZM62.2063 15.8987L61.919 16.402L63.6548 16.3893L63.9421 15.886L62.2063 15.8987ZM61.2726 17.5285L60.9734 18.032L62.7091 18.0193L63.0084 17.5159L61.2726 17.5285ZM71.7383 18.2039C71.5467 18.5395 71.3552 18.8034 71.1637 18.9958C70.9721 19.1881 70.7686 19.3328 70.5532 19.4299C70.3457 19.5189 70.1222 19.5762 69.8828 19.6018C69.6514 19.6194 69.396 19.6293 69.1167 19.6313L64.7354 19.6633L65.7888 17.8178L69.6793 17.7893L70.0624 17.1182L67.9914 17.1333C67.7121 17.1354 67.4647 17.1292 67.2492 17.1149C67.0338 17.0926 66.8741 17.0381 66.7704 16.9513C66.6746 16.8565 66.6387 16.7136 66.6627 16.5225C66.6866 16.3313 66.7983 16.068 66.9978 15.7324L67.8717 14.2103L70.0145 14.1947L69.2603 15.5129L70.9961 15.5003L71.7502 14.182L74.0726 14.165L71.7383 18.2039ZM70.6968 20.5506L63.7178 20.6016L63.9214 20.2541L70.9003 20.2031L70.6968 20.5506ZM70.3018 21.2218L63.3348 21.2728L63.5503 20.9012L70.5172 20.8503L70.3018 21.2218ZM69.9187 21.893L62.9398 21.944L63.1552 21.5724L70.1342 21.5214L69.9187 21.893ZM69.5476 22.5401L62.5687 22.5911L62.7722 22.2555L69.7391 22.2046L69.5476 22.5401ZM78.9503 15.9672L76.963 15.9817L74.8921 19.5891L72.7493 19.6048L74.8203 15.9974L72.8451 16.0118L73.9105 14.1662L80.0156 14.1216L78.9503 15.9672ZM76.6519 20.5071L69.9722 20.5559L70.1756 20.2084L76.8553 20.1595L76.6519 20.5071ZM76.2567 21.1783L69.589 21.2271L69.8046 20.8555L76.4722 20.8068L76.2567 21.1783ZM75.8738 21.8494L69.1941 21.8983L69.4095 21.5267L76.0891 21.4779L75.8738 21.8494ZM75.5026 22.4966L68.8229 22.5454L69.0264 22.2098L75.6941 22.161L75.5026 22.4966ZM84.2572 15.7494L81.1448 15.7722L80.8575 16.2636L83.2277 16.2462L82.5813 17.3728L80.2111 17.3901L79.9238 17.8815L83.7544 17.8535L82.7968 19.5313L76.8114 19.5751L79.9597 14.122L85.2149 14.0836L84.2572 15.7494ZM82.6531 20.4632L75.7939 20.5134L75.9974 20.1658L82.8566 20.1157L82.6531 20.4632ZM82.2701 21.1344L75.4108 21.1845L75.6263 20.813L82.4855 20.7628L82.2701 21.1344ZM81.887 21.8055L75.0158 21.8557L75.2312 21.4842L82.0905 21.434L81.887 21.8055ZM81.5159 22.4526L74.6447 22.5029L74.8482 22.1672L81.7074 22.1171L81.5159 22.4526ZM90.6777 15.6786L86.9428 15.7178L86.6675 16.2092L88.6786 16.1945C88.9659 16.1924 89.2173 16.2025 89.4328 16.2248C89.6562 16.239 89.8238 16.2935 89.9355 16.3882C90.0473 16.4828 90.0911 16.6257 90.0672 16.8168C90.0512 16.9999 89.9475 17.2593 89.756 17.5948L89.4806 18.0742C89.2811 18.4098 89.0776 18.6739 88.8701 18.8663C88.6706 19.0587 88.4591 19.2035 88.2357 19.3006C88.0202 19.3897 87.7888 19.4471 87.5414 19.4728C87.302 19.4904 87.0466 19.5003 86.7752 19.5022L82.5615 19.533L83.5192 17.8672L87.4696 17.8383L87.7569 17.3588L85.6979 17.3739C85.4425 17.3757 85.2071 17.3695 84.9916 17.3552C84.7761 17.3408 84.6085 17.2903 84.4888 17.2037C84.3771 17.109 84.3292 16.9702 84.3452 16.7871C84.3611 16.596 84.4689 16.3247 84.6684 15.9732L84.9437 15.4818C85.1353 15.1463 85.3308 14.8863 85.5303 14.7018C85.7298 14.5094 85.9373 14.3687 86.1528 14.2796C86.3762 14.1825 86.6077 14.1251 86.8471 14.1074C87.0945 14.0817 87.3618 14.0679 87.6491 14.0658L91.6354 14.0366L90.6777 15.6786ZM88.5828 20.4199L81.6039 20.4709L81.8074 20.1233L88.7863 20.0723L88.5828 20.4199ZM88.1878 21.0911L81.2208 21.142L81.4363 20.7705L88.4033 20.7196L88.1878 21.0911ZM87.8047 21.7622L80.8258 21.8132L81.0412 21.4417L88.0202 21.3907L87.8047 21.7622ZM87.4336 22.4094L80.4547 22.4604L80.6582 22.1247L87.6252 22.0738L87.4336 22.4094Z" fill="#5500FF"/>
<path fill-rule="evenodd" clip-rule="evenodd" d="M22.5472 11.181L96.8482 10.6379L97.5458 11.6807L23.2448 12.2238L22.5472 11.181Z" fill="white"/>
<path fill-rule="evenodd" clip-rule="evenodd" d="M96.8482 10.6379V12.627L21.1308 13.1804L21.8284 14.2232L97.5458 13.6697V11.6807L96.8482 10.6379Z" fill="white"/>
<path fill-rule="evenodd" clip-rule="evenodd" d="M21.1308 13.1804L18.7372 6.37421L19.4348 7.41694L21.8284 14.2232L21.1308 13.1804Z" fill="white"/>
<path fill-rule="evenodd" clip-rule="evenodd" d="M18.7372 6.37421L15.7241 13.8863L6.0397 13.957L6.73727 14.9998L16.4217 14.929L19.4348 7.41694L18.7372 6.37421Z" fill="white"/>
<path fill-rule="evenodd" clip-rule="evenodd" d="M6.0397 13.9571L13.69 19.6953L14.3875 20.7381L6.73727 14.9998L6.0397 13.9571Z" fill="white"/>
<path fill-rule="evenodd" clip-rule="evenodd" d="M13.69 19.6953L10.7752 26.2694L11.4727 27.3122L14.3875 20.7381L13.69 19.6953Z" fill="white"/>
<path fill-rule="evenodd" clip-rule="evenodd" d="M10.7752 26.2694L18.2082 22.3458L33.2555 34.4925L33.953 35.5353L18.9058 23.3886L11.4727 27.3122L10.7752 26.2694Z" fill="white"/>
<path fill-rule="evenodd" clip-rule="evenodd" d="M33.2555 34.4925L31.993 36.0421L17.9647 24.7173L6.63589 30.7003L7.33346 31.743L18.6623 25.7601L32.6905 37.0848L33.953 35.5353L33.2555 34.4925Z" fill="white"/>
<path fill-rule="evenodd" clip-rule="evenodd" d="M6.63589 30.7003L11.2253 20.3447L11.9228 21.3874L7.33346 31.743L6.63589 30.7003Z" fill="white"/>
<path fill-rule="evenodd" clip-rule="evenodd" d="M11.2253 20.3447L0.114716 12.0113L0.81228 13.0541L11.9228 21.3874L11.2253 20.3447Z" fill="white"/>
<path fill-rule="evenodd" clip-rule="evenodd" d="M0.114716 12.0113L14.3748 11.9071L18.8658 0.713043L19.5634 1.75578L15.0724 12.9498L0.81228 13.0541L0.114716 12.0113Z" fill="white"/>
<path fill-rule="evenodd" clip-rule="evenodd" d="M18.8658 0.713043L22.5472 11.181L23.2448 12.2238L19.5634 1.75578L18.8658 0.713043Z" fill="white"/>
<path d="M22.5472 11.181L96.8482 10.6379V12.627L21.1308 13.1804L18.7372 6.37422L15.7241 13.8863L6.0397 13.9571L13.69 19.6953L10.7752 26.2694L18.2082 22.3458L33.2555 34.4925L31.993 36.0421L17.9647 24.7173L6.6359 30.7003L11.2253 20.3447L0.114716 12.0113L14.3748 11.9071L18.8658 0.713043L22.5472 11.181Z" fill="#5500FF"/>
</svg>
